<svg xmlns="http://www.w3.org/2000/svg" viewBox="0 0 900 1150" width="900" height="1150" role="img"><title>Colección Promo 2026</title><defs>
<filter id="colegresadgrain" x="0" y="0" width="100%" height="100%">
  <feTurbulence type="fractalNoise" baseFrequency=".9" numOctaves="2" seed="7" result="n"/>
  <feColorMatrix type="matrix" values="0 0 0 0 .29  0 0 0 0 .2  0 0 0 0 .16  0 0 0 .07 0"/>
  <feComposite in2="SourceGraphic" operator="in"/>
</filter>
<filter id="colegresadshadow" x="-20%" y="-20%" width="140%" height="150%">
  <feGaussianBlur in="SourceAlpha" stdDeviation="18"/>
  <feOffset dx="10" dy="22"/>
  <feComponentTransfer><feFuncA type="linear" slope=".22"/></feComponentTransfer>
  <feMerge><feMergeNode/><feMergeNode in="SourceGraphic"/></feMerge>
</filter>
<filter id="colegresadsoft" x="-50%" y="-50%" width="200%" height="200%"><feGaussianBlur stdDeviation="70"/></filter>
<linearGradient id="colegresadspine" x1="0" y1="0" x2="1" y2="0">
  <stop offset="0" stop-color="#000" stop-opacity="0"/>
  <stop offset=".44" stop-color="#4A3228" stop-opacity=".05"/>
  <stop offset=".5" stop-color="#4A3228" stop-opacity=".22"/>
  <stop offset=".56" stop-color="#4A3228" stop-opacity=".05"/>
  <stop offset="1" stop-color="#000" stop-opacity="0"/>
</linearGradient>
</defs><rect width="900" height="1150" fill="#E4E1DA"/><rect width="900" height="1150" fill="#E4E1DA" filter="url(#colegresadgrain)"/><g opacity=".26" filter="url(#colegresadsoft)" transform="rotate(-26 450.0 575.0)"><rect x="90" y="-460" width="99" height="2185" fill="#FFFDF8"/><rect x="270" y="-460" width="99" height="2185" fill="#FFFDF8"/><rect x="450" y="-460" width="99" height="2185" fill="#FFFDF8"/><rect x="630" y="-460" width="99" height="2185" fill="#FFFDF8"/></g><g transform="translate(450 600) rotate(-5)" filter="url(#colegresadshadow)"><rect x="-374" y="-252.0" width="748" height="504" rx="10" fill="#3F3A36"/><rect x="-364.5" y="-237.0" width="729" height="480" rx="3" fill="#EFE7DA"/><rect x="-363.0" y="-238.0" width="726" height="480" rx="3" fill="#EFE7DA"/><rect x="-361.5" y="-239.0" width="723" height="480" rx="3" fill="#EFE7DA"/><rect x="-360" y="-240.0" width="360" height="480" rx="2" fill="#FFFCF6"/><rect x="0" y="-240.0" width="360" height="480" rx="2" fill="#FFFDF8"/><svg x="-327.6" y="-207.6" width="295.2" height="364.79999999999995" viewBox="0 0 160 120" preserveAspectRatio="xMidYMid slice"><g><defs><linearGradient id="colegresadas" x1="0" y1="0" x2="0" y2="1"><stop offset="0" stop-color="#DDE3E2"/><stop offset="1" stop-color="#F4ECE2"/></linearGradient></defs><rect width="160" height="120" fill="url(#colegresadas)"/><g transform="translate(40 36) rotate(-18)"><path d="M-12 0 L0 -6 L12 0 L0 6Z" fill="#3E2C25"/><rect x="-6" y="2" width="12" height="6" rx="1.5" fill="#3E2C25"/><path d="M8 1 V10" stroke="#C9A565" stroke-width="1.2"/></g><g transform="translate(92 22) rotate(14)"><path d="M-12 0 L0 -6 L12 0 L0 6Z" fill="#4A3228"/><rect x="-6" y="2" width="12" height="6" rx="1.5" fill="#4A3228"/><path d="M8 1 V10" stroke="#C9A565" stroke-width="1.2"/></g><g transform="translate(128 48) rotate(-8)"><path d="M-12 0 L0 -6 L12 0 L0 6Z" fill="#3E2C25"/><rect x="-6" y="2" width="12" height="6" rx="1.5" fill="#3E2C25"/><path d="M8 1 V10" stroke="#C9A565" stroke-width="1.2"/></g><g transform="translate(66 58) rotate(24)"><path d="M-12 0 L0 -6 L12 0 L0 6Z" fill="#5A4034"/><rect x="-6" y="2" width="12" height="6" rx="1.5" fill="#5A4034"/><path d="M8 1 V10" stroke="#C9A565" stroke-width="1.2"/></g><path d="M0 96 Q80 84 160 96 V120 H0Z" fill="#C8B9A6"/><g fill="#6B4E40"><circle cx="50" cy="84" r="3.6"/><path d="M45 110 L46 88 H54 L55 110Z"/><path d="M54 90 L64 76" stroke="#6B4E40" stroke-width="2.4"/><circle cx="110" cy="86" r="3.6"/><path d="M105 112 L106 90 H114 L115 112Z"/><path d="M106 92 L98 78" stroke="#6B4E40" stroke-width="2.4"/></g></g><rect width="160" height="120" fill="#fff" opacity=".04"/></svg><rect x="-327.6" y="182.39999999999998" width="108.0" height="2.5" fill="#B8975A" opacity=".7"/><svg x="32.4" y="-207.6" width="295.2" height="199.056" viewBox="0 0 160 120" preserveAspectRatio="xMidYMid slice"><g><defs><linearGradient id="colegresadbs" x1="0" y1="0" x2="0" y2="1"><stop offset="0" stop-color="#EFD2BE"/><stop offset="1" stop-color="#F7E9DA"/></linearGradient></defs><rect width="160" height="120" fill="url(#colegresadbs)"/><circle cx="80" cy="58" r="12" fill="#FCEBD4"/><path d="M0 64 L30 56 L60 62 L100 54 L160 64 V120 H0Z" fill="#B99885" opacity=".7"/><rect y="66" width="160" height="54" fill="#CDB59A"/><path d="M70 66 L90 66 L140 120 L20 120Z" fill="#6E5A4F"/><path d="M80 70 V76 M80 82 V92 M80 100 V116" stroke="#F4E7D6" stroke-width="1.6"/></g><rect width="160" height="120" fill="#fff" opacity=".04"/></svg><svg x="32.4" y="23.856000000000023" width="144.54000000000002" height="183.744" viewBox="0 0 160 120" preserveAspectRatio="xMidYMid slice"><g><defs><linearGradient id="colegresadcs" x1="0" y1="0" x2="0" y2="1"><stop offset="0" stop-color="#F3C9A8"/><stop offset="1" stop-color="#F7E3CF"/></linearGradient></defs><rect width="160" height="120" fill="url(#colegresadcs)"/><circle cx="104" cy="62" r="16" fill="#FBEBD6" opacity=".95"/><path d="M0 78 Q40 58 80 72 T160 66 V120 H0Z" fill="#D9A28F"/><path d="M0 92 Q50 74 100 88 T160 84 V120 H0Z" fill="#B97D6C"/><path d="M0 104 Q60 92 120 102 T160 100 V120 H0Z" fill="#8A5A4B"/></g><rect width="160" height="120" fill="#fff" opacity=".04"/></svg><text x="209.34000000000003" y="52.65600000000002" font-family="'Cormorant Garamond', 'Fraunces', Georgia, 'Times New Roman', serif" font-style="italic" font-size="27" fill="#4A3228">Promo 2026</text><rect x="209.34000000000003" y="70.7" width="93.6" height="3" rx="1.5" fill="#CDBBAA"/><rect x="209.34000000000003" y="83.3" width="75.6" height="3" rx="1.5" fill="#CDBBAA"/><rect x="209.34000000000003" y="95.9" width="57.6" height="3" rx="1.5" fill="#CDBBAA"/><rect x="-180.0" y="-240.0" width="360" height="480" fill="url(#colegresadspine)"/></g><g transform="translate(780 1140) rotate(18) scale(1.0)"><path d="M0 0 Q6 -110 12 -230" stroke="#A58B6A" stroke-width="2.5" fill="none"/><ellipse cx="10.0" cy="-0.0" rx="10" ry="4" transform="rotate(35 10.0 -0.0)" fill="#A58B6A" opacity=".75"/><ellipse cx="-8.7" cy="-24.4" rx="10" ry="4" transform="rotate(-35 -8.7 -24.4)" fill="#A58B6A" opacity=".75"/><ellipse cx="12.7" cy="-48.9" rx="10" ry="4" transform="rotate(35 12.7 -48.9)" fill="#A58B6A" opacity=".75"/><ellipse cx="-6.0" cy="-73.3" rx="10" ry="4" transform="rotate(-35 -6.0 -73.3)" fill="#A58B6A" opacity=".75"/><ellipse cx="15.3" cy="-97.8" rx="10" ry="4" transform="rotate(35 15.3 -97.8)" fill="#A58B6A" opacity=".75"/><ellipse cx="-3.3" cy="-122.2" rx="10" ry="4" transform="rotate(-35 -3.3 -122.2)" fill="#A58B6A" opacity=".75"/><ellipse cx="18.0" cy="-146.7" rx="10" ry="4" transform="rotate(35 18.0 -146.7)" fill="#A58B6A" opacity=".75"/><ellipse cx="-0.7" cy="-171.1" rx="10" ry="4" transform="rotate(-35 -0.7 -171.1)" fill="#A58B6A" opacity=".75"/><ellipse cx="20.7" cy="-195.6" rx="10" ry="4" transform="rotate(35 20.7 -195.6)" fill="#A58B6A" opacity=".75"/><circle cx="10.4" cy="-234.5" r="7.0" fill="#E8C4C0"/><circle cx="7.6" cy="-225.1" r="6.9" fill="#E8C4C0"/><circle cx="2.3" cy="-236.7" r="4.8" fill="#E8C4C0"/><circle cx="18.2" cy="-233.8" r="4.8" fill="#E8C4C0"/><circle cx="22.9" cy="-231.3" r="6.0" fill="#E8C4C0"/><circle cx="1.3" cy="-227.9" r="6.1" fill="#E8C4C0"/><circle cx="21.5" cy="-238.2" r="5.0" fill="#E8C4C0"/></g></svg>