<svg xmlns="http://www.w3.org/2000/svg" viewBox="0 0 1600 1100" width="1600" height="1100" role="img"><title>Álbum de fotos abierto sobre una mesa</title><defs>
<filter id="hero3grain" x="0" y="0" width="100%" height="100%">
  <feTurbulence type="fractalNoise" baseFrequency=".9" numOctaves="2" seed="7" result="n"/>
  <feColorMatrix type="matrix" values="0 0 0 0 .29  0 0 0 0 .2  0 0 0 0 .16  0 0 0 .07 0"/>
  <feComposite in2="SourceGraphic" operator="in"/>
</filter>
<filter id="hero3shadow" x="-20%" y="-20%" width="140%" height="150%">
  <feGaussianBlur in="SourceAlpha" stdDeviation="18"/>
  <feOffset dx="10" dy="22"/>
  <feComponentTransfer><feFuncA type="linear" slope=".22"/></feComponentTransfer>
  <feMerge><feMergeNode/><feMergeNode in="SourceGraphic"/></feMerge>
</filter>
<filter id="hero3soft" x="-50%" y="-50%" width="200%" height="200%"><feGaussianBlur stdDeviation="70"/></filter>
<linearGradient id="hero3spine" x1="0" y1="0" x2="1" y2="0">
  <stop offset="0" stop-color="#000" stop-opacity="0"/>
  <stop offset=".44" stop-color="#4A3228" stop-opacity=".05"/>
  <stop offset=".5" stop-color="#4A3228" stop-opacity=".22"/>
  <stop offset=".56" stop-color="#4A3228" stop-opacity=".05"/>
  <stop offset="1" stop-color="#000" stop-opacity="0"/>
</linearGradient>
</defs><rect width="1600" height="1100" fill="#F6F5F3"/><rect width="1600" height="1100" fill="#F6F5F3" filter="url(#hero3grain)"/><g opacity=".26" filter="url(#hero3soft)" transform="rotate(-28 800.0 550.0)"><rect x="160" y="-440" width="176" height="2090" fill="#FFFDF8"/><rect x="480" y="-440" width="176" height="2090" fill="#FFFDF8"/><rect x="800" y="-440" width="176" height="2090" fill="#FFFDF8"/><rect x="1120" y="-440" width="176" height="2090" fill="#FFFDF8"/></g><g transform="translate(170 1060) rotate(-24) scale(1.5)"><path d="M0 0 Q6 -110 12 -230" stroke="#9C9A92" stroke-width="2.5" fill="none"/><ellipse cx="10.0" cy="-0.0" rx="10" ry="4" transform="rotate(35 10.0 -0.0)" fill="#9C9A92" opacity=".75"/><ellipse cx="-8.7" cy="-24.4" rx="10" ry="4" transform="rotate(-35 -8.7 -24.4)" fill="#9C9A92" opacity=".75"/><ellipse cx="12.7" cy="-48.9" rx="10" ry="4" transform="rotate(35 12.7 -48.9)" fill="#9C9A92" opacity=".75"/><ellipse cx="-6.0" cy="-73.3" rx="10" ry="4" transform="rotate(-35 -6.0 -73.3)" fill="#9C9A92" opacity=".75"/><ellipse cx="15.3" cy="-97.8" rx="10" ry="4" transform="rotate(35 15.3 -97.8)" fill="#9C9A92" opacity=".75"/><ellipse cx="-3.3" cy="-122.2" rx="10" ry="4" transform="rotate(-35 -3.3 -122.2)" fill="#9C9A92" opacity=".75"/><ellipse cx="18.0" cy="-146.7" rx="10" ry="4" transform="rotate(35 18.0 -146.7)" fill="#9C9A92" opacity=".75"/><ellipse cx="-0.7" cy="-171.1" rx="10" ry="4" transform="rotate(-35 -0.7 -171.1)" fill="#9C9A92" opacity=".75"/><ellipse cx="20.7" cy="-195.6" rx="10" ry="4" transform="rotate(35 20.7 -195.6)" fill="#9C9A92" opacity=".75"/><circle cx="11.3" cy="-231.1" r="6.2" fill="#EBA6CB"/><circle cx="23.2" cy="-228.7" r="4.4" fill="#EBA6CB"/><circle cx="3.2" cy="-229.2" r="4.4" fill="#EBA6CB"/><circle cx="2.1" cy="-245.8" r="4.0" fill="#EBA6CB"/><circle cx="0.3" cy="-223.5" r="6.7" fill="#EBA6CB"/><circle cx="16.7" cy="-224.9" r="6.3" fill="#EBA6CB"/><circle cx="21.1" cy="-227.9" r="5.1" fill="#EBA6CB"/></g><g transform="translate(820 560) rotate(-2)" filter="url(#hero3shadow)"><rect x="-574" y="-372.0" width="1148" height="744" rx="10" fill="#F2C9DE"/><rect x="-564.5" y="-357.0" width="1129" height="720" rx="3" fill="#E6E4E0"/><rect x="-563.0" y="-358.0" width="1126" height="720" rx="3" fill="#E6E4E0"/><rect x="-561.5" y="-359.0" width="1123" height="720" rx="3" fill="#E6E4E0"/><rect x="-560" y="-360.0" width="560" height="720" rx="2" fill="#FFFCF6"/><rect x="0" y="-360.0" width="560" height="720" rx="2" fill="#FFFDF8"/><text x="-280.0" y="-43.19999999999999" text-anchor="middle" font-family="'Cormorant Garamond', 'Fraunces', Georgia, 'Times New Roman', serif" font-size="67" fill="#1C1C1C">Mi primer año</text><text x="-280.0" y="14.400000000000034" text-anchor="middle" font-family="'Cormorant Garamond', 'Fraunces', Georgia, 'Times New Roman', serif" font-style="italic" font-size="34" fill="#777">capítulo uno</text><rect x="-347.2" y="57.599999999999966" width="134.4" height="2" fill="#DC8AB9"/><svg x="65.52" y="-294.48" width="428.96000000000004" height="588.96" viewBox="0 0 160 120" preserveAspectRatio="xMidYMid slice"><g><defs><linearGradient id="hero3as" x1="0" y1="0" x2="0" y2="1"><stop offset="0" stop-color="#EFCFCB"/><stop offset="1" stop-color="#F7E6E0"/></linearGradient></defs><rect width="160" height="120" fill="url(#hero3as)"/><circle cx="30" cy="26" r="1.6" fill="#FFF7EC"/><circle cx="120" cy="20" r="1.4" fill="#FFF7EC"/><circle cx="140" cy="44" r="1.2" fill="#FFF7EC"/><circle cx="20" cy="60" r="1.2" fill="#FFF7EC"/><circle cx="60" cy="16" r="1.1" fill="#FFF7EC"/><path d="M104 40 a16 16 0 1 0 12 26 a13 13 0 1 1 -12 -26z" fill="#FFF3E2"/><g fill="#FBF4EC"><circle cx="40" cy="92" r="16"/><circle cx="62" cy="86" r="20"/><circle cx="86" cy="94" r="15"/><rect x="30" y="94" width="66" height="26"/></g><g fill="#F4E6DA"><circle cx="118" cy="100" r="12"/><circle cx="136" cy="96" r="15"/><rect x="110" y="100" width="50" height="20"/></g></g><rect width="160" height="120" fill="#fff" opacity=".04"/></svg><rect x="-280.0" y="-360.0" width="560" height="720" fill="url(#hero3spine)"/></g><g transform="translate(1420 190)"><circle r="89.89999999999999" fill="#FBF7F1" opacity=".95"/><circle r="89.89999999999999" fill="none" stroke="#E4D6C6" stroke-width="2"/><circle r="62" fill="#FFFCF7"/><circle r="48.36" fill="#6E4A38"/><circle r="48.36" fill="none" stroke="#8C6450" stroke-width="3"/><ellipse cx="-12.4" cy="-15.5" rx="18.599999999999998" ry="8.680000000000001" fill="#C8A58A" opacity=".5"/><rect x="57.04" y="-12" width="31.0" height="24" rx="12" fill="#FFFCF7"/></g></svg>