<svg xmlns="http://www.w3.org/2000/svg" viewBox="0 0 1000 1250" width="1000" height="1250" role="img"><title>Interior del álbum Mi Primer Año</title><defs>
<filter id="miprimeranograin" x="0" y="0" width="100%" height="100%">
  <feTurbulence type="fractalNoise" baseFrequency=".9" numOctaves="2" seed="7" result="n"/>
  <feColorMatrix type="matrix" values="0 0 0 0 .29  0 0 0 0 .2  0 0 0 0 .16  0 0 0 .07 0"/>
  <feComposite in2="SourceGraphic" operator="in"/>
</filter>
<filter id="miprimeranoshadow" x="-20%" y="-20%" width="140%" height="150%">
  <feGaussianBlur in="SourceAlpha" stdDeviation="18"/>
  <feOffset dx="10" dy="22"/>
  <feComponentTransfer><feFuncA type="linear" slope=".22"/></feComponentTransfer>
  <feMerge><feMergeNode/><feMergeNode in="SourceGraphic"/></feMerge>
</filter>
<filter id="miprimeranosoft" x="-50%" y="-50%" width="200%" height="200%"><feGaussianBlur stdDeviation="70"/></filter>
<linearGradient id="miprimeranospine" x1="0" y1="0" x2="1" y2="0">
  <stop offset="0" stop-color="#000" stop-opacity="0"/>
  <stop offset=".44" stop-color="#4A3228" stop-opacity=".05"/>
  <stop offset=".5" stop-color="#4A3228" stop-opacity=".22"/>
  <stop offset=".56" stop-color="#4A3228" stop-opacity=".05"/>
  <stop offset="1" stop-color="#000" stop-opacity="0"/>
</linearGradient>
</defs><rect width="1000" height="1250" fill="#F1E8DC"/><rect width="1000" height="1250" fill="#F1E8DC" filter="url(#miprimerangrain)"/><g opacity=".26" filter="url(#miprimeransoft)" transform="rotate(-20 500.0 625.0)"><rect x="100" y="-500" width="110" height="2375" fill="#FFFDF8"/><rect x="300" y="-500" width="110" height="2375" fill="#FFFDF8"/><rect x="500" y="-500" width="110" height="2375" fill="#FFFDF8"/><rect x="700" y="-500" width="110" height="2375" fill="#FFFDF8"/></g><g transform="translate(500 620) rotate(0)" filter="url(#miprimeranoshadow)"><rect x="-454" y="-312.0" width="908" height="624" rx="10" fill="#E3C2BC"/><rect x="-444.5" y="-297.0" width="889" height="600" rx="3" fill="#EFE7DA"/><rect x="-443.0" y="-298.0" width="886" height="600" rx="3" fill="#EFE7DA"/><rect x="-441.5" y="-299.0" width="883" height="600" rx="3" fill="#EFE7DA"/><rect x="-440" y="-300.0" width="440" height="600" rx="2" fill="#FFFCF6"/><rect x="0" y="-300.0" width="440" height="600" rx="2" fill="#FFFDF8"/><svg x="-400.4" y="-260.4" width="168.52" height="248.51999999999998" viewBox="0 0 160 120" preserveAspectRatio="xMidYMid slice"><g><defs><linearGradient id="miprimeranog0s" x1="0" y1="0" x2="0" y2="1"><stop offset="0" stop-color="#EFCFCB"/><stop offset="1" stop-color="#F7E6E0"/></linearGradient></defs><rect width="160" height="120" fill="url(#miprimeranog0s)"/><circle cx="30" cy="26" r="1.6" fill="#FFF7EC"/><circle cx="120" cy="20" r="1.4" fill="#FFF7EC"/><circle cx="140" cy="44" r="1.2" fill="#FFF7EC"/><circle cx="20" cy="60" r="1.2" fill="#FFF7EC"/><circle cx="60" cy="16" r="1.1" fill="#FFF7EC"/><path d="M104 40 a16 16 0 1 0 12 26 a13 13 0 1 1 -12 -26z" fill="#FFF3E2"/><g fill="#FBF4EC"><circle cx="40" cy="92" r="16"/><circle cx="62" cy="86" r="20"/><circle cx="86" cy="94" r="15"/><rect x="30" y="94" width="66" height="26"/></g><g fill="#F4E6DA"><circle cx="118" cy="100" r="12"/><circle cx="136" cy="96" r="15"/><rect x="110" y="100" width="50" height="20"/></g></g><rect width="160" height="120" fill="#fff" opacity=".04"/></svg><svg x="-208.11999999999998" y="-260.4" width="168.52" height="248.51999999999998" viewBox="0 0 160 120" preserveAspectRatio="xMidYMid slice"><g><defs><linearGradient id="miprimeranog1s" x1="0" y1="0" x2="0" y2="1"><stop offset="0" stop-color="#F0D9C6"/><stop offset="1" stop-color="#F7EBDD"/></linearGradient></defs><rect width="160" height="120" fill="url(#miprimeranog1s)"/><circle cx="36" cy="46" r="12" fill="#FCEEDC"/><path d="M0 88 Q80 76 160 90 V120 H0Z" fill="#C6AE8F"/><g fill="#4A3228"><circle cx="64" cy="62" r="4.4"/><path d="M58 98 L59 70 Q64 67 69 70 L70 98Z"/><circle cx="98" cy="60" r="4.6"/><path d="M92 98 L93 69 Q98 66 103 69 L104 98Z"/><circle cx="81" cy="78" r="3.2"/><path d="M77 98 L77.6 83 Q81 81 84.4 83 L85 98Z"/><path d="M69 80 L77 86 M85 86 L93 80" stroke="#4A3228" stroke-width="2"/></g></g><rect width="160" height="120" fill="#fff" opacity=".04"/></svg><svg x="-400.4" y="11.879999999999995" width="168.52" height="248.51999999999998" viewBox="0 0 160 120" preserveAspectRatio="xMidYMid slice"><g><defs><linearGradient id="miprimeranog2s" x1="0" y1="0" x2="0" y2="1"><stop offset="0" stop-color="#F1DCC8"/><stop offset="1" stop-color="#F8EEE2"/></linearGradient></defs><rect width="160" height="120" fill="url(#miprimeranog2s)"/><circle cx="118" cy="48" r="14" fill="#FDF3E3"/><path d="M0 84 Q80 70 160 82 V120 H0Z" fill="#B7B08E"/><path d="M97.1 108.1 Q98.9 101.1 97.1 94.1" stroke="#7F8A70" stroke-width=".8" fill="none"/><circle cx="97.1" cy="94.1" r="2.6" fill="#FBF1E4"/><path d="M35.9 125.0 Q33.9 118.0 35.9 111.0" stroke="#7F8A70" stroke-width=".8" fill="none"/><circle cx="35.9" cy="111.0" r="2.8" fill="#F3DCCB"/><path d="M153.7 115.6 Q150.8 108.6 153.7 101.6" stroke="#7F8A70" stroke-width=".8" fill="none"/><circle cx="153.7" cy="101.6" r="2.3" fill="#F3DCCB"/><path d="M46.1 109.2 Q45.4 102.2 46.1 95.2" stroke="#7F8A70" stroke-width=".8" fill="none"/><circle cx="46.1" cy="95.2" r="2.2" fill="#D99F97"/><path d="M62.3 100.4 Q61.0 93.4 62.3 86.4" stroke="#7F8A70" stroke-width=".8" fill="none"/><circle cx="62.3" cy="86.4" r="3.2" fill="#C9A565"/><path d="M86.3 94.2 Q88.4 87.2 86.3 80.2" stroke="#7F8A70" stroke-width=".8" fill="none"/><circle cx="86.3" cy="80.2" r="2.1" fill="#FBF1E4"/><path d="M8.3 119.4 Q7.3 112.4 8.3 105.4" stroke="#7F8A70" stroke-width=".8" fill="none"/><circle cx="8.3" cy="105.4" r="2.4" fill="#E8C4C0"/><path d="M41.9 104.4 Q40.8 97.4 41.9 90.4" stroke="#7F8A70" stroke-width=".8" fill="none"/><circle cx="41.9" cy="90.4" r="2.4" fill="#FBF1E4"/><path d="M46.6 120.4 Q49.3 113.4 46.6 106.4" stroke="#7F8A70" stroke-width=".8" fill="none"/><circle cx="46.6" cy="106.4" r="2.6" fill="#C9A565"/><path d="M33.4 112.8 Q32.0 105.8 33.4 98.8" stroke="#7F8A70" stroke-width=".8" fill="none"/><circle cx="33.4" cy="98.8" r="2.4" fill="#C9A565"/><path d="M76.6 94.7 Q74.0 87.7 76.6 80.7" stroke="#7F8A70" stroke-width=".8" fill="none"/><circle cx="76.6" cy="80.7" r="2.8" fill="#D99F97"/><path d="M146.5 93.6 Q148.1 86.6 146.5 79.6" stroke="#7F8A70" stroke-width=".8" fill="none"/><circle cx="146.5" cy="79.6" r="3.2" fill="#D99F97"/><path d="M30.9 120.0 Q28.1 113.0 30.9 106.0" stroke="#7F8A70" stroke-width=".8" fill="none"/><circle cx="30.9" cy="106.0" r="2.9" fill="#C9A565"/><path d="M140.0 124.7 Q141.9 117.7 140.0 110.7" stroke="#7F8A70" stroke-width=".8" fill="none"/><circle cx="140.0" cy="110.7" r="2.3" fill="#F3DCCB"/><path d="M24.7 123.0 Q21.7 116.0 24.7 109.0" stroke="#7F8A70" stroke-width=".8" fill="none"/><circle cx="24.7" cy="109.0" r="2.0" fill="#F3DCCB"/><path d="M135.1 128.7 Q134.0 121.7 135.1 114.7" stroke="#7F8A70" stroke-width=".8" fill="none"/><circle cx="135.1" cy="114.7" r="1.9" fill="#FBF1E4"/><path d="M53.6 114.6 Q56.4 107.6 53.6 100.6" stroke="#7F8A70" stroke-width=".8" fill="none"/><circle cx="53.6" cy="100.6" r="2.1" fill="#FBF1E4"/><path d="M40.0 108.3 Q40.3 101.3 40.0 94.3" stroke="#7F8A70" stroke-width=".8" fill="none"/><circle cx="40.0" cy="94.3" r="3.3" fill="#E8C4C0"/><path d="M146.0 109.7 Q145.0 102.7 146.0 95.7" stroke="#7F8A70" stroke-width=".8" fill="none"/><circle cx="146.0" cy="95.7" r="2.1" fill="#E8C4C0"/><path d="M45.2 123.7 Q45.8 116.7 45.2 109.7" stroke="#7F8A70" stroke-width=".8" fill="none"/><circle cx="45.2" cy="109.7" r="3.2" fill="#E8C4C0"/><path d="M138.6 120.2 Q137.2 113.2 138.6 106.2" stroke="#7F8A70" stroke-width=".8" fill="none"/><circle cx="138.6" cy="106.2" r="1.9" fill="#D99F97"/><path d="M123.6 99.1 Q124.8 92.1 123.6 85.1" stroke="#7F8A70" stroke-width=".8" fill="none"/><circle cx="123.6" cy="85.1" r="3.3" fill="#C9A565"/><path d="M50.6 110.1 Q50.6 103.1 50.6 96.1" stroke="#7F8A70" stroke-width=".8" fill="none"/><circle cx="50.6" cy="96.1" r="3.0" fill="#D99F97"/><path d="M153.1 93.9 Q155.1 86.9 153.1 79.9" stroke="#7F8A70" stroke-width=".8" fill="none"/><circle cx="153.1" cy="79.9" r="1.9" fill="#D99F97"/><path d="M77.0 115.2 Q79.9 108.2 77.0 101.2" stroke="#7F8A70" stroke-width=".8" fill="none"/><circle cx="77.0" cy="101.2" r="1.8" fill="#C9A565"/><path d="M45.8 92.3 Q44.9 85.3 45.8 78.3" stroke="#7F8A70" stroke-width=".8" fill="none"/><circle cx="45.8" cy="78.3" r="2.8" fill="#D99F97"/></g><rect width="160" height="120" fill="#fff" opacity=".04"/></svg><svg x="-208.11999999999998" y="11.879999999999995" width="168.52" height="248.51999999999998" viewBox="0 0 160 120" preserveAspectRatio="xMidYMid slice"><g><defs><linearGradient id="miprimeranog3s" x1="0" y1="0" x2="0" y2="1"><stop offset="0" stop-color="#EFCFCB"/><stop offset="1" stop-color="#F7E6E0"/></linearGradient></defs><rect width="160" height="120" fill="url(#miprimeranog3s)"/><circle cx="30" cy="26" r="1.6" fill="#FFF7EC"/><circle cx="120" cy="20" r="1.4" fill="#FFF7EC"/><circle cx="140" cy="44" r="1.2" fill="#FFF7EC"/><circle cx="20" cy="60" r="1.2" fill="#FFF7EC"/><circle cx="60" cy="16" r="1.1" fill="#FFF7EC"/><path d="M104 40 a16 16 0 1 0 12 26 a13 13 0 1 1 -12 -26z" fill="#FFF3E2"/><g fill="#FBF4EC"><circle cx="40" cy="92" r="16"/><circle cx="62" cy="86" r="20"/><circle cx="86" cy="94" r="15"/><rect x="30" y="94" width="66" height="26"/></g><g fill="#F4E6DA"><circle cx="118" cy="100" r="12"/><circle cx="136" cy="96" r="15"/><rect x="110" y="100" width="50" height="20"/></g></g><rect width="160" height="120" fill="#fff" opacity=".04"/></svg><svg x="39.6" y="-260.4" width="360.8" height="372.0" viewBox="0 0 160 120" preserveAspectRatio="xMidYMid slice"><g><defs><linearGradient id="miprimeranors" x1="0" y1="0" x2="0" y2="1"><stop offset="0" stop-color="#F0D9C6"/><stop offset="1" stop-color="#F7EBDD"/></linearGradient></defs><rect width="160" height="120" fill="url(#miprimeranors)"/><circle cx="36" cy="46" r="12" fill="#FCEEDC"/><path d="M0 88 Q80 76 160 90 V120 H0Z" fill="#C6AE8F"/><g fill="#4A3228"><circle cx="64" cy="62" r="4.4"/><path d="M58 98 L59 70 Q64 67 69 70 L70 98Z"/><circle cx="98" cy="60" r="4.6"/><path d="M92 98 L93 69 Q98 66 103 69 L104 98Z"/><circle cx="81" cy="78" r="3.2"/><path d="M77 98 L77.6 83 Q81 81 84.4 83 L85 98Z"/><path d="M69 80 L77 86 M85 86 L93 80" stroke="#4A3228" stroke-width="2"/></g></g><rect width="160" height="120" fill="#fff" opacity=".04"/></svg><text x="220.0" y="164.39999999999998" text-anchor="middle" font-family="'Cormorant Garamond', 'Fraunces', Georgia, 'Times New Roman', serif" font-style="italic" font-size="35" fill="#4A3228">Mi Primer Año</text><rect x="176.0" y="186.4" width="88.0" height="2" fill="#B8975A"/><rect x="-220.0" y="-300.0" width="440" height="600" fill="url(#miprimeranospine)"/></g><g transform="translate(830 150)"><circle r="72.5" fill="#FBF7F1" opacity=".95"/><circle r="72.5" fill="none" stroke="#E4D6C6" stroke-width="2"/><circle r="50" fill="#FFFCF7"/><circle r="39.0" fill="#6E4A38"/><circle r="39.0" fill="none" stroke="#8C6450" stroke-width="3"/><ellipse cx="-10.0" cy="-12.5" rx="15.0" ry="7.000000000000001" fill="#C8A58A" opacity=".5"/><rect x="46.0" y="-12" width="25.0" height="24" rx="12" fill="#FFFCF7"/></g></svg>