<svg xmlns="http://www.w3.org/2000/svg" viewBox="0 0 1000 1250" width="1000" height="1250" role="img"><title>Las hermanas fundadoras de Amaré Studio con un álbum</title><defs>
<filter id="sistersgrain" x="0" y="0" width="100%" height="100%">
  <feTurbulence type="fractalNoise" baseFrequency=".9" numOctaves="2" seed="7" result="n"/>
  <feColorMatrix type="matrix" values="0 0 0 0 .29  0 0 0 0 .2  0 0 0 0 .16  0 0 0 .07 0"/>
  <feComposite in2="SourceGraphic" operator="in"/>
</filter>
<filter id="sistersshadow" x="-20%" y="-20%" width="140%" height="150%">
  <feGaussianBlur in="SourceAlpha" stdDeviation="18"/>
  <feOffset dx="10" dy="22"/>
  <feComponentTransfer><feFuncA type="linear" slope=".22"/></feComponentTransfer>
  <feMerge><feMergeNode/><feMergeNode in="SourceGraphic"/></feMerge>
</filter>
<filter id="sisterssoft" x="-50%" y="-50%" width="200%" height="200%"><feGaussianBlur stdDeviation="70"/></filter>
<linearGradient id="sistersspine" x1="0" y1="0" x2="1" y2="0">
  <stop offset="0" stop-color="#000" stop-opacity="0"/>
  <stop offset=".44" stop-color="#4A3228" stop-opacity=".05"/>
  <stop offset=".5" stop-color="#4A3228" stop-opacity=".22"/>
  <stop offset=".56" stop-color="#4A3228" stop-opacity=".05"/>
  <stop offset="1" stop-color="#000" stop-opacity="0"/>
</linearGradient>
</defs><rect width="1000" height="1250" fill="#EDE2D5"/><rect width="1000" height="1250" fill="#EDE2D5" filter="url(#sistersgrain)"/><g opacity=".26" filter="url(#sisterssoft)" transform="rotate(-28 500.0 625.0)"><rect x="100" y="-500" width="110" height="2375" fill="#FFFDF8"/><rect x="300" y="-500" width="110" height="2375" fill="#FFFDF8"/><rect x="500" y="-500" width="110" height="2375" fill="#FFFDF8"/><rect x="700" y="-500" width="110" height="2375" fill="#FFFDF8"/></g><path d="M140 1250 Q150 775.0 340 750.0 Q530 775.0 540 1250Z" fill="#E8C4C0"/><path d="M220 825.0 Q200 375.0 340 325.0 Q480 375.0 460 825.0Z" fill="#5A3B2C"/><rect x="310" y="575.0" width="60" height="200.0" fill="#EBC6AA"/><ellipse cx="340" cy="500.0" rx="88" ry="112" fill="#EBC6AA"/><path d="M248 500.0 Q260 337.5 350 343.75 Q440 362.5 432 500.0 Q370 387.5 248 500.0Z" fill="#5A3B2C"/><path d="M460 1250 Q470 775.0 660 750.0 Q850 775.0 860 1250Z" fill="#F5EFE6"/><path d="M540 825.0 Q520 375.0 660 325.0 Q800 375.0 780 825.0Z" fill="#3A2A24"/><rect x="630" y="575.0" width="60" height="200.0" fill="#E2B998"/><ellipse cx="660" cy="500.0" rx="88" ry="112" fill="#E2B998"/><path d="M568 500.0 Q580 337.5 670 343.75 Q760 362.5 752 500.0 Q690 387.5 568 500.0Z" fill="#3A2A24"/><g transform="translate(500 1060) rotate(-4)" filter="url(#sistersshadow)"><rect x="-244" y="-162.0" width="488" height="324" rx="10" fill="#9C7B6B"/><rect x="-234.5" y="-147.0" width="469" height="300" rx="3" fill="#EFE7DA"/><rect x="-233.0" y="-148.0" width="466" height="300" rx="3" fill="#EFE7DA"/><rect x="-231.5" y="-149.0" width="463" height="300" rx="3" fill="#EFE7DA"/><rect x="-230" y="-150.0" width="230" height="300" rx="2" fill="#FFFCF6"/><rect x="0" y="-150.0" width="230" height="300" rx="2" fill="#FFFDF8"/><svg x="-209.3" y="-129.3" width="188.6" height="226.40000000000003" viewBox="0 0 160 120" preserveAspectRatio="xMidYMid slice"><g><defs><linearGradient id="sistersas" x1="0" y1="0" x2="0" y2="1"><stop offset="0" stop-color="#F0D9C6"/><stop offset="1" stop-color="#F7EBDD"/></linearGradient></defs><rect width="160" height="120" fill="url(#sistersas)"/><circle cx="36" cy="46" r="12" fill="#FCEEDC"/><path d="M0 88 Q80 76 160 90 V120 H0Z" fill="#C6AE8F"/><g fill="#4A3228"><circle cx="64" cy="62" r="4.4"/><path d="M58 98 L59 70 Q64 67 69 70 L70 98Z"/><circle cx="98" cy="60" r="4.6"/><path d="M92 98 L93 69 Q98 66 103 69 L104 98Z"/><circle cx="81" cy="78" r="3.2"/><path d="M77 98 L77.6 83 Q81 81 84.4 83 L85 98Z"/><path d="M69 80 L77 86 M85 86 L93 80" stroke="#4A3228" stroke-width="2"/></g></g><rect width="160" height="120" fill="#fff" opacity=".04"/></svg><rect x="-209.3" y="113.20000000000002" width="69.0" height="2.5" fill="#B8975A" opacity=".7"/><svg x="20.7" y="-129.3" width="188.6" height="123.70800000000001" viewBox="0 0 160 120" preserveAspectRatio="xMidYMid slice"><g><defs><linearGradient id="sistersbs" x1="0" y1="0" x2="0" y2="1"><stop offset="0" stop-color="#F3C9A8"/><stop offset="1" stop-color="#F7E3CF"/></linearGradient></defs><rect width="160" height="120" fill="url(#sistersbs)"/><circle cx="104" cy="62" r="16" fill="#FBEBD6" opacity=".95"/><path d="M0 78 Q40 58 80 72 T160 66 V120 H0Z" fill="#D9A28F"/><path d="M0 92 Q50 74 100 88 T160 84 V120 H0Z" fill="#B97D6C"/><path d="M0 104 Q60 92 120 102 T160 100 V120 H0Z" fill="#8A5A4B"/></g><rect width="160" height="120" fill="#fff" opacity=".04"/></svg><svg x="20.7" y="15.108000000000018" width="92.34500000000001" height="114.192" viewBox="0 0 160 120" preserveAspectRatio="xMidYMid slice"><g><defs><linearGradient id="sisterscs" x1="0" y1="0" x2="0" y2="1"><stop offset="0" stop-color="#F1DCC8"/><stop offset="1" stop-color="#F8EEE2"/></linearGradient></defs><rect width="160" height="120" fill="url(#sisterscs)"/><circle cx="118" cy="48" r="14" fill="#FDF3E3"/><path d="M0 84 Q80 70 160 82 V120 H0Z" fill="#B7B08E"/><path d="M19.9 96.5 Q20.7 89.5 19.9 82.5" stroke="#7F8A70" stroke-width=".8" fill="none"/><circle cx="19.9" cy="82.5" r="2.5" fill="#D99F97"/><path d="M147.2 125.8 Q146.6 118.8 147.2 111.8" stroke="#7F8A70" stroke-width=".8" fill="none"/><circle cx="147.2" cy="111.8" r="2.1" fill="#FBF1E4"/><path d="M22.8 115.8 Q24.4 108.8 22.8 101.8" stroke="#7F8A70" stroke-width=".8" fill="none"/><circle cx="22.8" cy="101.8" r="2.2" fill="#FBF1E4"/><path d="M143.8 107.9 Q141.9 100.9 143.8 93.9" stroke="#7F8A70" stroke-width=".8" fill="none"/><circle cx="143.8" cy="93.9" r="2.4" fill="#F3DCCB"/><path d="M10.8 128.2 Q12.8 121.2 10.8 114.2" stroke="#7F8A70" stroke-width=".8" fill="none"/><circle cx="10.8" cy="114.2" r="2.1" fill="#FBF1E4"/><path d="M6.2 93.5 Q5.1 86.5 6.2 79.5" stroke="#7F8A70" stroke-width=".8" fill="none"/><circle cx="6.2" cy="79.5" r="1.9" fill="#C9A565"/><path d="M47.3 122.2 Q44.4 115.2 47.3 108.2" stroke="#7F8A70" stroke-width=".8" fill="none"/><circle cx="47.3" cy="108.2" r="1.9" fill="#F3DCCB"/><path d="M85.6 116.1 Q82.7 109.1 85.6 102.1" stroke="#7F8A70" stroke-width=".8" fill="none"/><circle cx="85.6" cy="102.1" r="2.8" fill="#FBF1E4"/><path d="M73.7 121.3 Q72.0 114.3 73.7 107.3" stroke="#7F8A70" stroke-width=".8" fill="none"/><circle cx="73.7" cy="107.3" r="2.5" fill="#C9A565"/><path d="M36.4 107.5 Q37.3 100.5 36.4 93.5" stroke="#7F8A70" stroke-width=".8" fill="none"/><circle cx="36.4" cy="93.5" r="2.6" fill="#C9A565"/><path d="M16.4 103.4 Q16.9 96.4 16.4 89.4" stroke="#7F8A70" stroke-width=".8" fill="none"/><circle cx="16.4" cy="89.4" r="3.3" fill="#F3DCCB"/><path d="M112.6 108.0 Q113.1 101.0 112.6 94.0" stroke="#7F8A70" stroke-width=".8" fill="none"/><circle cx="112.6" cy="94.0" r="2.9" fill="#F3DCCB"/><path d="M39.9 99.0 Q38.1 92.0 39.9 85.0" stroke="#7F8A70" stroke-width=".8" fill="none"/><circle cx="39.9" cy="85.0" r="1.9" fill="#F3DCCB"/><path d="M100.5 100.7 Q99.7 93.7 100.5 86.7" stroke="#7F8A70" stroke-width=".8" fill="none"/><circle cx="100.5" cy="86.7" r="2.4" fill="#FBF1E4"/><path d="M44.5 109.8 Q44.8 102.8 44.5 95.8" stroke="#7F8A70" stroke-width=".8" fill="none"/><circle cx="44.5" cy="95.8" r="2.2" fill="#E8C4C0"/><path d="M149.7 92.1 Q151.7 85.1 149.7 78.1" stroke="#7F8A70" stroke-width=".8" fill="none"/><circle cx="149.7" cy="78.1" r="2.9" fill="#FBF1E4"/><path d="M137.4 124.5 Q138.3 117.5 137.4 110.5" stroke="#7F8A70" stroke-width=".8" fill="none"/><circle cx="137.4" cy="110.5" r="2.6" fill="#D99F97"/><path d="M77.0 103.4 Q79.3 96.4 77.0 89.4" stroke="#7F8A70" stroke-width=".8" fill="none"/><circle cx="77.0" cy="89.4" r="2.3" fill="#E8C4C0"/><path d="M44.0 120.4 Q41.8 113.4 44.0 106.4" stroke="#7F8A70" stroke-width=".8" fill="none"/><circle cx="44.0" cy="106.4" r="2.5" fill="#F3DCCB"/><path d="M43.8 116.3 Q41.9 109.3 43.8 102.3" stroke="#7F8A70" stroke-width=".8" fill="none"/><circle cx="43.8" cy="102.3" r="1.9" fill="#FBF1E4"/><path d="M27.8 99.2 Q27.9 92.2 27.8 85.2" stroke="#7F8A70" stroke-width=".8" fill="none"/><circle cx="27.8" cy="85.2" r="2.3" fill="#F3DCCB"/><path d="M105.1 119.4 Q105.6 112.4 105.1 105.4" stroke="#7F8A70" stroke-width=".8" fill="none"/><circle cx="105.1" cy="105.4" r="2.9" fill="#E8C4C0"/><path d="M50.3 107.7 Q50.4 100.7 50.3 93.7" stroke="#7F8A70" stroke-width=".8" fill="none"/><circle cx="50.3" cy="93.7" r="3.1" fill="#F3DCCB"/><path d="M34.7 126.2 Q34.1 119.2 34.7 112.2" stroke="#7F8A70" stroke-width=".8" fill="none"/><circle cx="34.7" cy="112.2" r="2.9" fill="#D99F97"/><path d="M107.0 99.5 Q106.7 92.5 107.0 85.5" stroke="#7F8A70" stroke-width=".8" fill="none"/><circle cx="107.0" cy="85.5" r="2.9" fill="#F3DCCB"/><path d="M117.0 117.2 Q115.5 110.2 117.0 103.2" stroke="#7F8A70" stroke-width=".8" fill="none"/><circle cx="117.0" cy="103.2" r="2.0" fill="#C9A565"/></g><rect width="160" height="120" fill="#fff" opacity=".04"/></svg><text x="133.745" y="33.508000000000024" font-family="'Cormorant Garamond', 'Fraunces', Georgia, 'Times New Roman', serif" font-style="italic" font-size="17" fill="#4A3228">Amaré</text><rect x="133.745" y="45.0" width="59.8" height="3" rx="1.5" fill="#CDBBAA"/><rect x="133.745" y="53.1" width="48.3" height="3" rx="1.5" fill="#CDBBAA"/><rect x="133.745" y="61.1" width="36.8" height="3" rx="1.5" fill="#CDBBAA"/><rect x="-115.0" y="-150.0" width="230" height="300" fill="url(#sistersspine)"/></g></svg>