<svg xmlns="http://www.w3.org/2000/svg" viewBox="0 0 1000 1250" width="1000" height="1250" role="img"><title>Páginas impresas de la plantilla Nuestra Historia</title><defs>
<filter id="nuestrahispgrain" x="0" y="0" width="100%" height="100%">
  <feTurbulence type="fractalNoise" baseFrequency=".9" numOctaves="2" seed="7" result="n"/>
  <feColorMatrix type="matrix" values="0 0 0 0 .29  0 0 0 0 .2  0 0 0 0 .16  0 0 0 .07 0"/>
  <feComposite in2="SourceGraphic" operator="in"/>
</filter>
<filter id="nuestrahispshadow" x="-20%" y="-20%" width="140%" height="150%">
  <feGaussianBlur in="SourceAlpha" stdDeviation="18"/>
  <feOffset dx="10" dy="22"/>
  <feComponentTransfer><feFuncA type="linear" slope=".22"/></feComponentTransfer>
  <feMerge><feMergeNode/><feMergeNode in="SourceGraphic"/></feMerge>
</filter>
<filter id="nuestrahispsoft" x="-50%" y="-50%" width="200%" height="200%"><feGaussianBlur stdDeviation="70"/></filter>
<linearGradient id="nuestrahispspine" x1="0" y1="0" x2="1" y2="0">
  <stop offset="0" stop-color="#000" stop-opacity="0"/>
  <stop offset=".44" stop-color="#4A3228" stop-opacity=".05"/>
  <stop offset=".5" stop-color="#4A3228" stop-opacity=".22"/>
  <stop offset=".56" stop-color="#4A3228" stop-opacity=".05"/>
  <stop offset="1" stop-color="#000" stop-opacity="0"/>
</linearGradient>
</defs><rect width="1000" height="1250" fill="#F4ECE3"/><rect width="1000" height="1250" fill="#F4ECE3" filter="url(#nuestrahisgrain)"/><g opacity=".26" filter="url(#nuestrahissoft)" transform="rotate(-24 500.0 625.0)"><rect x="100" y="-500" width="110" height="2375" fill="#FFFDF8"/><rect x="300" y="-500" width="110" height="2375" fill="#FFFDF8"/><rect x="500" y="-500" width="110" height="2375" fill="#FFFDF8"/><rect x="700" y="-500" width="110" height="2375" fill="#FFFDF8"/></g><g transform="translate(360 560) rotate(-8)" filter="url(#nuestrahispshadow)"><rect x="-190.0" y="-247.0" width="380" height="494.0" fill="#FFFDF8"/><svg x="-159.6" y="-216.6" width="319.2" height="345.79999999999995" viewBox="0 0 160 120" preserveAspectRatio="xMidYMid slice"><g><defs><linearGradient id="nuestrahisppcouples" x1="0" y1="0" x2="0" y2="1"><stop offset="0" stop-color="#F2C6B4"/><stop offset="1" stop-color="#F8E4D2"/></linearGradient></defs><rect width="160" height="120" fill="url(#nuestrahisppcouples)"/><circle cx="80" cy="74" r="20" fill="#FCE9D6" opacity=".9"/><rect y="80" width="160" height="40" fill="#C99A8A"/><rect y="80" width="160" height="3" fill="#E7C0AE"/><path d="M0 104 Q80 96 160 104 V120 H0Z" fill="#E6CDB5"/><g fill="#4A3228"><circle cx="70" cy="70" r="4.2"/><path d="M64 104 L65.5 76 Q70 73 74.5 76 L76 104Z"/><circle cx="88" cy="68" r="4.4"/><path d="M82 104 L83 75 Q88 72 93 75 L94 104Z"/><path d="M74 84 Q79 88 84 84" stroke="#4A3228" stroke-width="2.2" fill="none"/></g></g><rect width="160" height="120" fill="#fff" opacity=".04"/></svg><rect x="-76.0" y="167.96" width="152.0" height="3" fill="#CDBBAA"/></g><g transform="translate(640 640) rotate(7)" filter="url(#nuestrahispshadow)"><rect x="-190.0" y="-247.0" width="380" height="494.0" fill="#FFFDF8"/><svg x="-159.6" y="-216.6" width="319.2" height="345.79999999999995" viewBox="0 0 160 120" preserveAspectRatio="xMidYMid slice"><g><defs><linearGradient id="nuestrahisppsunsets" x1="0" y1="0" x2="0" y2="1"><stop offset="0" stop-color="#F3C9A8"/><stop offset="1" stop-color="#F7E3CF"/></linearGradient></defs><rect width="160" height="120" fill="url(#nuestrahisppsunsets)"/><circle cx="104" cy="62" r="16" fill="#FBEBD6" opacity=".95"/><path d="M0 78 Q40 58 80 72 T160 66 V120 H0Z" fill="#D9A28F"/><path d="M0 92 Q50 74 100 88 T160 84 V120 H0Z" fill="#B97D6C"/><path d="M0 104 Q60 92 120 102 T160 100 V120 H0Z" fill="#8A5A4B"/></g><rect width="160" height="120" fill="#fff" opacity=".04"/></svg><rect x="-76.0" y="167.96" width="152.0" height="3" fill="#CDBBAA"/></g><g transform="translate(820 170)"><circle r="69.6" fill="#FBF7F1" opacity=".95"/><circle r="69.6" fill="none" stroke="#E4D6C6" stroke-width="2"/><circle r="48" fill="#FFFCF7"/><circle r="37.44" fill="#6E4A38"/><circle r="37.44" fill="none" stroke="#8C6450" stroke-width="3"/><ellipse cx="-9.600000000000001" cy="-12.0" rx="14.399999999999999" ry="6.720000000000001" fill="#C8A58A" opacity=".5"/><rect x="44.160000000000004" y="-12" width="24.0" height="24" rx="12" fill="#FFFCF7"/></g></svg>